<svg xmlns="http://www.w3.org/2000/svg" viewBox="0 0 300 70"><defs><style>.a{fill:none;}.b{fill:#0e84fb;}</style></defs><g transform="translate(-570 -61)"><rect class="a" width="300" height="70" transform="translate(570 61)"/><g transform="translate(55 -29)"><g transform="translate(542 115)"><path d="M20.325-7.675c0-2.925-1.725-4.875-4.55-4.875a5.194,5.194,0,0,0-4.15,1.925A4.145,4.145,0,0,0,7.9-12.55a4.8,4.8,0,0,0-3.55,1.425v-1.15H1.9V0H4.525V-7.3a2.64,2.64,0,0,1,2.7-2.85A2.561,2.561,0,0,1,9.8-7.3V0h2.625V-7.425a2.606,2.606,0,0,1,2.7-2.725c1.575,0,2.55,1.125,2.55,2.85V0h2.65Zm13.4.25c0-3.3-2-5.125-5.025-5.125a6.013,6.013,0,0,0-5.175,2.625l1.525,1.55a4.211,4.211,0,0,1,3.4-1.825,2.372,2.372,0,0,1,2.625,2.625v.8H27.6c-2.775,0-4.525,1.375-4.525,3.5s1.7,3.55,4.275,3.55a4.91,4.91,0,0,0,3.925-1.65V0h2.45ZM31.075-4.65A2.987,2.987,0,0,1,27.9-1.75c-1.275,0-2.15-.6-2.15-1.625,0-1,.775-1.5,2.175-1.5h3.15Zm13.6,2.425c-.725.075-1.25.125-1.625.125-1.6,0-2.425-.55-2.425-2.125V-10h3.65v-2.275h-3.65V-15.5h-2.65v3.225h-2V-10h2v6c0,2.875,1.7,4.275,4.525,4.275A10.753,10.753,0,0,0,44.675,0ZM56.4-18.75v7.975a5.207,5.207,0,0,0-4.1-1.775,6.061,6.061,0,0,0-6,6.425,6.069,6.069,0,0,0,6,6.4A5.147,5.147,0,0,0,56.6-1.75V0h2.45V-18.75Zm.05,12.625a3.653,3.653,0,0,1-3.7,4A3.775,3.775,0,0,1,48.975-6.15a3.8,3.8,0,0,1,3.775-4A3.7,3.7,0,0,1,56.45-6.125Zm17.45.85a7.814,7.814,0,0,0,.2-1.65,5.521,5.521,0,0,0-5.675-5.625,6.328,6.328,0,0,0-6.35,6.425,6.381,6.381,0,0,0,6.6,6.4,6.878,6.878,0,0,0,4.9-1.975l-1.25-1.8A5.292,5.292,0,0,1,68.75-2.05a3.8,3.8,0,0,1-4-3.225Zm-9.1-2.05a3.6,3.6,0,0,1,3.525-3,2.967,2.967,0,0,1,3.15,3ZM75.95-2.1A6.165,6.165,0,0,0,80.9.275,5.281,5.281,0,0,0,84.15-.7a3.3,3.3,0,0,0,1.3-2.775c0-1.725-1.025-2.725-3.35-3.7L80.925-7.65c-1.2-.5-1.625-.825-1.625-1.45,0-.775.65-1.175,1.675-1.175a4,4,0,0,1,2.875,1.25l1.425-1.625a5.253,5.253,0,0,0-4.25-1.9c-2.5,0-4.325,1.35-4.325,3.55,0,1.725,1.025,2.675,3.2,3.575l1.25.525c1.2.5,1.725.8,1.725,1.525,0,.9-.85,1.375-1.975,1.375a4.706,4.706,0,0,1-3.45-1.75Zm25.275-4.05a6.074,6.074,0,0,0-6.025-6.4,5.113,5.113,0,0,0-4.275,2v-1.725h-2.45V4.5H91.1v-6A5.318,5.318,0,0,0,95.2.275C98.675.275,101.225-2.475,101.225-6.15Zm-2.7.025a3.778,3.778,0,0,1-3.75,4,3.661,3.661,0,0,1-3.7-4.025,3.653,3.653,0,0,1,3.7-4A3.785,3.785,0,0,1,98.525-6.125ZM114-7.425c0-3.3-2-5.125-5.025-5.125A6.013,6.013,0,0,0,103.8-9.925l1.525,1.55a4.211,4.211,0,0,1,3.4-1.825,2.372,2.372,0,0,1,2.625,2.625v.8h-3.475c-2.775,0-4.525,1.375-4.525,3.5s1.7,3.55,4.275,3.55a4.91,4.91,0,0,0,3.925-1.65V0H114ZM111.35-4.65a2.987,2.987,0,0,1-3.175,2.9c-1.275,0-2.15-.6-2.15-1.625,0-1,.775-1.5,2.175-1.5h3.15Zm13.6,2.425c-.725.075-1.25.125-1.625.125-1.6,0-2.425-.55-2.425-2.125V-10h3.65v-2.275H120.9V-15.5h-2.65v3.225h-2V-10h2v6c0,2.875,1.7,4.275,4.525,4.275A10.753,10.753,0,0,0,124.95,0Zm1.625-3.925a6.424,6.424,0,0,0,6.5,6.425,5.939,5.939,0,0,0,5.175-2.85L136.4-4a4,4,0,0,1-3.3,1.85,3.856,3.856,0,0,1-3.85-4,3.849,3.849,0,0,1,3.85-3.975,3.907,3.907,0,0,1,3.3,1.875l1.85-1.45a5.85,5.85,0,0,0-5.175-2.85A6.418,6.418,0,0,0,126.575-6.15Zm25.3-1.525c0-2.9-1.75-4.875-4.55-4.875a4.51,4.51,0,0,0-3.55,1.5v-7.7H141.15V0h2.625V-7.3a2.718,2.718,0,0,1,2.8-2.85A2.608,2.608,0,0,1,149.25-7.3V0h2.625Zm3.3,6.025A1.922,1.922,0,0,0,157.15.275a1.88,1.88,0,0,0,1.925-1.925A1.886,1.886,0,0,0,157.15-3.6,1.942,1.942,0,0,0,155.175-1.65Zm6.325-4.5A6.424,6.424,0,0,0,168,.275a5.939,5.939,0,0,0,5.175-2.85L171.325-4a4,4,0,0,1-3.3,1.85,3.856,3.856,0,0,1-3.85-4,3.849,3.849,0,0,1,3.85-3.975,3.907,3.907,0,0,1,3.3,1.875l1.85-1.45A5.85,5.85,0,0,0,168-12.55,6.418,6.418,0,0,0,161.5-6.15Zm13.55,0A6.434,6.434,0,0,0,181.525.275,6.445,6.445,0,0,0,188.05-6.15a6.424,6.424,0,0,0-6.525-6.4A6.4,6.4,0,0,0,175.05-6.15Zm10.3.025a3.844,3.844,0,0,1-3.825,3.975,3.81,3.81,0,0,1-3.8-3.975,3.858,3.858,0,0,1,3.825-4.025A3.868,3.868,0,0,1,185.35-6.125Zm24.125-1.55c0-2.925-1.725-4.875-4.55-4.875a5.194,5.194,0,0,0-4.15,1.925,4.145,4.145,0,0,0-3.725-1.925,4.8,4.8,0,0,0-3.55,1.425v-1.15h-2.45V0h2.625V-7.3a2.64,2.64,0,0,1,2.7-2.85A2.561,2.561,0,0,1,198.95-7.3V0h2.625V-7.425a2.606,2.606,0,0,1,2.7-2.725c1.575,0,2.55,1.125,2.55,2.85V0h2.65Z" transform="translate(34.801 20)"/><g transform="translate(0 2.147)"><path class="b" d="M21.393,23.377c3.13,0,8.78-7.559,10.46-6.413s-7.635,11.682-10.46,11.682S9.177,18.032,10.933,16.963,18.262,23.377,21.393,23.377Z" transform="translate(-2.562 -6.733)"/><path class="b" d="M10.7,8.868c-3.13,0-8.78,7.559-10.46,6.413S7.873,3.6,10.7,3.6s12.216,10.613,10.46,11.682S13.828,8.868,10.7,8.868Z" transform="translate(-0.037 -3.6)"/></g></g></g></g></svg>