<svg xmlns="http://www.w3.org/2000/svg" viewBox="0 0 238 64">
  <defs>
    <style>
      .cls-1 {
        fill: none;
      }

      .cls-2 {
        fill: #fff;
      }
    </style>
  </defs>
  <g id="Group_40" data-name="Group 40" transform="translate(4401 729)">
    <path id="Rectangle_4_Copy_4" data-name="Rectangle 4 Copy 4" class="cls-1" d="M0,0H238V64H0Z" transform="translate(-4401 -729)"/>
    <g id="Group_39" data-name="Group 39" transform="translate(-4373.037 -706)">
      <g id="Group_20" data-name="Group 20" transform="translate(27.313)">
        <path id="Path_5" data-name="Path 5" class="cls-2" d="M62.146,17.795H60.168V12.256a1.907,1.907,0,0,0-1.922-2.148,1.959,1.959,0,0,0-2.035,2.035v5.6H54.234V12.2a1.907,1.907,0,0,0-1.922-2.148A1.99,1.99,0,0,0,50.278,12.2v5.538H48.3V8.526h1.865v.848A3.7,3.7,0,0,1,52.878,8.3,3.169,3.169,0,0,1,55.7,9.769,3.869,3.869,0,0,1,58.868,8.3c2.148,0,3.447,1.469,3.447,3.673v5.821Z" transform="translate(-48.3 -3.609)"/>
        <path id="Path_6" data-name="Path 6" class="cls-2" d="M84.182,17.795H82.317V16.777a3.787,3.787,0,0,1-3,1.243c-1.922,0-3.221-1.074-3.221-2.713s1.3-2.656,3.447-2.656H82.2v-.565a1.788,1.788,0,0,0-1.978-1.978,3.324,3.324,0,0,0-2.6,1.356L76.5,10.278A4.487,4.487,0,0,1,80.4,8.3c2.317,0,3.787,1.356,3.787,3.9ZM82.2,14.121H79.83c-1.074,0-1.639.4-1.639,1.13,0,.791.678,1.243,1.639,1.243a2.265,2.265,0,0,0,2.43-2.2v-.17Z" transform="translate(-60.389 -3.609)"/>
        <path id="Path_7" data-name="Path 7" class="cls-2" d="M99.712,16.1a10.221,10.221,0,0,1-1.639.226c-2.148,0-3.447-1.074-3.447-3.221V8.582H93.1v-1.7h1.526V4.4H96.6V6.83h2.769v1.7H96.6v4.352c0,1.187.622,1.582,1.808,1.582.283,0,.678-.057,1.243-.113V16.1Z" transform="translate(-67.781 -1.913)"/>
        <path id="Path_8" data-name="Path 8" class="cls-2" d="M116.263,0V14.185H114.4v-1.3a3.9,3.9,0,0,1-3.278,1.526,4.584,4.584,0,0,1-4.521-4.86,4.584,4.584,0,0,1,4.521-4.86,3.922,3.922,0,0,1,3.108,1.356V0Zm-4.747,6.5a2.9,2.9,0,0,0-2.882,3.052,2.837,2.837,0,0,0,2.882,3.052,2.792,2.792,0,0,0,2.826-3.052A2.888,2.888,0,0,0,111.516,6.5Z" transform="translate(-73.651)"/>
        <path id="Path_9" data-name="Path 9" class="cls-2" d="M129.477,13.738a2.834,2.834,0,0,0,3.052,2.43,4.044,4.044,0,0,0,2.713-1.074l.961,1.356a5.2,5.2,0,0,1-3.73,1.469A4.861,4.861,0,1,1,132.3,8.2a4.143,4.143,0,0,1,4.3,4.239,5.041,5.041,0,0,1-.17,1.243h-6.951Zm5.086-1.526a2.226,2.226,0,0,0-2.374-2.261,2.713,2.713,0,0,0-2.656,2.261Z" transform="translate(-82.739 -3.565)"/>
        <path id="Path_10" data-name="Path 10" class="cls-2" d="M146.874,14.969a3.522,3.522,0,0,0,2.6,1.3c.848,0,1.469-.339,1.469-1.017,0-.565-.4-.791-1.3-1.13l-.961-.4c-1.639-.678-2.43-1.413-2.43-2.713,0-1.639,1.356-2.713,3.278-2.713a3.931,3.931,0,0,1,3.221,1.413l-1.074,1.243A2.92,2.92,0,0,0,149.53,10c-.791,0-1.243.283-1.243.9,0,.452.339.735,1.243,1.074l.9.339c1.752.735,2.543,1.469,2.543,2.826a2.553,2.553,0,0,1-.961,2.091,3.938,3.938,0,0,1-2.487.735,4.606,4.606,0,0,1-3.73-1.808Z" transform="translate(-90.698 -3.609)"/>
        <path id="Path_11" data-name="Path 11" class="cls-2" d="M167.186,18.021a4.091,4.091,0,0,1-3.108-1.356v4.521H162.1V8.526h1.865v1.3A3.867,3.867,0,0,1,167.186,8.3a4.6,4.6,0,0,1,4.578,4.86A4.6,4.6,0,0,1,167.186,18.021Zm-.339-7.912a2.792,2.792,0,0,0-2.826,3.052,2.792,2.792,0,0,0,2.826,3.052,2.857,2.857,0,0,0,2.826-3.052A2.824,2.824,0,0,0,166.847,10.108Z" transform="translate(-97.786 -3.609)"/>
        <path id="Path_12" data-name="Path 12" class="cls-2" d="M189.682,17.795h-1.865V16.777a3.787,3.787,0,0,1-3,1.243c-1.922,0-3.221-1.074-3.221-2.713s1.3-2.656,3.447-2.656H187.7v-.565a1.788,1.788,0,0,0-1.978-1.978,3.324,3.324,0,0,0-2.6,1.356L182,10.278A4.487,4.487,0,0,1,185.9,8.3c2.317,0,3.787,1.356,3.787,3.9v5.6ZM187.7,14.121H185.33c-1.074,0-1.639.4-1.639,1.13,0,.791.678,1.243,1.639,1.243a2.265,2.265,0,0,0,2.43-2.2v-.17Z" transform="translate(-106.265 -3.609)"/>
        <path id="Path_13" data-name="Path 13" class="cls-2" d="M205.212,16.1a10.22,10.22,0,0,1-1.639.226c-2.148,0-3.447-1.074-3.447-3.221V8.582H198.6v-1.7h1.526V4.4H202.1V6.83h2.769v1.7H202.1v4.352c0,1.187.622,1.582,1.808,1.582.283,0,.678-.057,1.243-.113V16.1Z" transform="translate(-113.658 -1.913)"/>
        <path id="Path_14" data-name="Path 14" class="cls-2" d="M217.016,8.3a4.37,4.37,0,0,1,3.9,2.148L219.5,11.521a2.9,2.9,0,0,0-2.487-1.413,2.932,2.932,0,0,0-2.939,3,2.925,2.925,0,0,0,5.425,1.639l1.413,1.074a4.5,4.5,0,0,1-3.9,2.148,4.833,4.833,0,1,1,0-9.664Z" transform="translate(-119.527 -3.608)"/>
        <path id="Path_15" data-name="Path 15" class="cls-2" d="M239.482,14.185H237.5V8.647A1.96,1.96,0,0,0,235.469,6.5a2.033,2.033,0,0,0-2.091,2.148v5.538H231.4V0h1.978V5.821a3.452,3.452,0,0,1,2.713-1.13,3.357,3.357,0,0,1,3.447,3.673v5.821Z" transform="translate(-127.921)"/>
        <path id="Path_16" data-name="Path 16" class="cls-2" d="M251.267,20.3a1.469,1.469,0,1,1-1.469,1.469A1.394,1.394,0,0,1,251.267,20.3Z" transform="translate(-135.919 -8.827)"/>
        <path id="Path_17" data-name="Path 17" class="cls-2" d="M262.816,8.3a4.37,4.37,0,0,1,3.9,2.148L265.3,11.521a2.9,2.9,0,0,0-2.487-1.413,2.932,2.932,0,0,0-2.939,3,2.925,2.925,0,0,0,5.425,1.639l1.413,1.074a4.5,4.5,0,0,1-3.9,2.148,4.833,4.833,0,1,1,0-9.664Z" transform="translate(-139.443 -3.608)"/>
        <path id="Path_18" data-name="Path 18" class="cls-2" d="M280.616,8.3a4.861,4.861,0,1,1,0,9.721,4.909,4.909,0,0,1-4.917-4.86A4.837,4.837,0,0,1,280.616,8.3Zm0,1.808a2.9,2.9,0,0,0-2.882,3.052,2.884,2.884,0,1,0,5.765,0A2.97,2.97,0,0,0,280.616,10.108Z" transform="translate(-147.183 -3.608)"/>
        <path id="Path_19" data-name="Path 19" class="cls-2" d="M310.846,17.795h-1.978V12.256a1.907,1.907,0,0,0-1.922-2.148,1.959,1.959,0,0,0-2.035,2.035v5.6h-1.978V12.2a1.907,1.907,0,0,0-1.922-2.148,1.99,1.99,0,0,0-2.035,2.148v5.538H297V8.526h1.865v.848A3.7,3.7,0,0,1,301.578,8.3,3.169,3.169,0,0,1,304.4,9.769,3.869,3.869,0,0,1,307.568,8.3c2.148,0,3.447,1.469,3.447,3.673v5.821Z" transform="translate(-156.447 -3.609)"/>
      </g>
      <g id="Group_21" data-name="Group 21" transform="translate(0.037 0.509)">
        <path id="Path_20" data-name="Path 20" class="cls-2" d="M18.619,18.98c2.317,0,6.5-5.6,7.743-4.747S20.71,22.88,18.619,22.88s-9.042-7.856-7.743-8.647S16.3,18.98,18.619,18.98Z" transform="translate(-4.68 -6.66)"/>
        <path id="Path_21" data-name="Path 21" class="cls-2" d="M7.928,4.8c-2.317,0-6.5,5.6-7.743,4.747S5.837.9,7.928.9s9.042,7.856,7.743,8.647S10.245,4.8,7.928,4.8Z" transform="translate(-0.037 -0.9)"/>
      </g>
    </g>
  </g>
</svg>
